<svg width="30" height="30" viewBox="0 0 50 50" fill="none" xmlns="http://www.w3.org/2000/svg">
<path d="M43.7498 6.25V32.2917C43.7498 34.2255 42.9816 36.0802 41.6142 37.4477C40.2467 38.8151 38.392 39.5833 36.4582 39.5833C34.5243 39.5833 32.6696 38.8151 31.3022 37.4477C29.9347 36.0802 29.1665 34.2255 29.1665 32.2917C29.1665 30.3578 29.9347 28.5031 31.3022 27.1357C32.6696 25.7682 34.5243 25 36.4582 25C37.5832 25 38.6457 25.25 39.5832 25.7083V13.4792L18.7498 17.9167V36.4583C18.7498 38.3922 17.9816 40.2469 16.6142 41.6143C15.2467 42.9818 13.392 43.75 11.4582 43.75C9.5243 43.75 7.66964 42.9818 6.30218 41.6143C4.93473 40.2469 4.1665 38.3922 4.1665 36.4583C4.1665 34.5245 4.93473 32.6698 6.30218 31.3023C7.66964 29.9349 9.5243 29.1667 11.4582 29.1667C12.5832 29.1667 13.6457 29.4167 14.5832 29.875V12.5L43.7498 6.25Z" fill="black"/>
</svg>
