<svg width="30" height="30" viewBox="0 0 50 50" fill="none" xmlns="http://www.w3.org/2000/svg">
<path d="M4.1665 10.9792L6.83317 8.33333L41.6665 43.1667L39.0207 45.8333L18.7498 25.5625V36.4583C18.7498 38.3922 17.9816 40.2469 16.6142 41.6143C15.2467 42.9818 13.392 43.75 11.4582 43.75C9.5243 43.75 7.66964 42.9818 6.30218 41.6143C4.93473 40.2469 4.1665 38.3922 4.1665 36.4583C4.1665 34.5245 4.93473 32.6698 6.30218 31.3023C7.66964 29.9349 9.5243 29.1667 11.4582 29.1667C12.5832 29.1667 13.6457 29.4167 14.5832 29.875V21.3958L4.1665 10.9792ZM43.7498 6.25V32.2917C43.7498 34.375 42.854 36.2917 41.4165 37.625L31.1248 27.3333C32.4582 25.8958 34.3748 25 36.4582 25C37.5832 25 38.6457 25.25 39.5832 25.7083V13.4792L21.1873 17.3958L15.9582 12.1667L43.7498 6.25Z" fill="black"/>
</svg>
